G75*
G70*
%OFA0B0*%
%FSLAX24Y24*%
%IPPOS*%
%LPD*%
%AMOC8*
5,1,8,0,0,1.08239X$1,22.5*
%
%ADD10C,0.0320*%
%ADD11C,0.0060*%
D10*
X007206Y000504D02*
X007206Y021504D01*
X028206Y021504D01*
X028706Y021004D01*
X028706Y016504D01*
X029706Y015504D01*
X029706Y002504D01*
X028706Y001504D01*
X028706Y000504D01*
X007206Y000504D01*
D11*
X007736Y010534D02*
X007736Y011174D01*
X008163Y011174D01*
X008381Y010961D02*
X008381Y010641D01*
X008488Y010534D01*
X008808Y010534D01*
X008808Y010961D01*
X009025Y010854D02*
X009132Y010961D01*
X009452Y010961D01*
X009670Y010961D02*
X009777Y010961D01*
X009777Y010534D01*
X009883Y010534D02*
X009670Y010534D01*
X009452Y010641D02*
X009346Y010747D01*
X009132Y010747D01*
X009025Y010854D01*
X009025Y010534D02*
X009346Y010534D01*
X009452Y010641D01*
X010100Y010641D02*
X010206Y010534D01*
X010420Y010534D01*
X010527Y010641D01*
X010527Y010854D01*
X010420Y010961D01*
X010206Y010961D01*
X010100Y010854D01*
X010100Y010641D01*
X010744Y010534D02*
X010744Y010961D01*
X011064Y010961D01*
X011171Y010854D01*
X011171Y010534D01*
X012033Y010641D02*
X012140Y010534D01*
X012353Y010534D01*
X012460Y010641D01*
X012460Y010854D01*
X012353Y010961D01*
X012140Y010961D01*
X012033Y010854D01*
X012033Y010641D01*
X012678Y010747D02*
X012891Y010961D01*
X012998Y010961D01*
X013215Y010854D02*
X013321Y010961D01*
X013642Y010961D01*
X013642Y011174D02*
X013642Y010534D01*
X013321Y010534D01*
X013215Y010641D01*
X013215Y010854D01*
X012678Y010961D02*
X012678Y010534D01*
X013859Y010641D02*
X013859Y010854D01*
X013966Y010961D01*
X014180Y010961D01*
X014286Y010854D01*
X014286Y010747D01*
X013859Y010747D01*
X013859Y010641D02*
X013966Y010534D01*
X014180Y010534D01*
X014504Y010534D02*
X014504Y010961D01*
X014717Y010961D02*
X014824Y010961D01*
X014717Y010961D02*
X014504Y010747D01*
X015685Y010747D02*
X016112Y010747D01*
X016112Y010961D02*
X016006Y010961D01*
X015685Y010961D01*
X015792Y011174D02*
X015792Y010534D01*
X016006Y010534D02*
X016006Y011174D01*
X016330Y011068D02*
X016437Y011174D01*
X016650Y011174D01*
X016757Y011068D01*
X016757Y010961D01*
X016650Y010854D01*
X016757Y010747D01*
X016757Y010641D01*
X016650Y010534D01*
X016437Y010534D01*
X016330Y010641D01*
X016543Y010854D02*
X016650Y010854D01*
X016974Y010854D02*
X016974Y010641D01*
X017081Y010534D01*
X017295Y010534D01*
X017401Y010641D01*
X017401Y010747D01*
X017295Y010854D01*
X016974Y010854D01*
X017188Y011068D01*
X017401Y011174D01*
X017619Y011068D02*
X017619Y010961D01*
X017726Y010854D01*
X018046Y010854D01*
X018046Y010641D02*
X017939Y010534D01*
X017726Y010534D01*
X017619Y010641D01*
X017619Y011068D02*
X017726Y011174D01*
X017939Y011174D01*
X018046Y011068D01*
X018046Y010641D01*
X018264Y010641D02*
X018370Y010534D01*
X018584Y010534D01*
X018691Y010641D01*
X018691Y011068D01*
X018584Y011174D01*
X018370Y011174D01*
X018264Y011068D01*
X018264Y010961D01*
X018370Y010854D01*
X018691Y010854D01*
X018908Y010641D02*
X019335Y011068D01*
X019335Y010641D01*
X019228Y010534D01*
X019015Y010534D01*
X018908Y010641D01*
X018908Y011068D01*
X019015Y011174D01*
X019228Y011174D01*
X019335Y011068D01*
X009777Y011174D02*
X009777Y011281D01*
X007950Y010854D02*
X007736Y010854D01*
M02*
