%
M48
M72
T01C0.0276
T02C0.0320
T03C0.0354
T04C0.0394
T05C0.0400
T06C0.0440
T07C0.1260
T08C0.1300
%
T01
X11206Y8004
X12206Y8004
X12206Y3004
X12206Y2004
X25706Y7504
X26706Y7504
T02
X26706Y6504
X25706Y6504
X24706Y6504
X23706Y6504
X22706Y6504
X21706Y6504
X20706Y6504
X20706Y8504
X19706Y8504
X18706Y8504
X20706Y3504
X21706Y3504
X22706Y3504
X23706Y3504
X24706Y3504
X25706Y3504
X26706Y3504
X27706Y3504
X27706Y6504
X26556Y16504
X25706Y16504
X24856Y16504
X18556Y16504
X17706Y16504
X16856Y16504
T03
X15706Y18504
X19706Y18504
X21206Y18504
X25206Y18504
X10706Y6004
X9206Y6004
X9206Y2004
X10706Y2004
T04
X15706Y1504
X16706Y1504
X17706Y1504
X18706Y1504
X19706Y1504
X20706Y1504
X22706Y1504
X23706Y1504
X24706Y1504
X25706Y1504
X26706Y1504
X27706Y1504
X27706Y20504
X26706Y20504
X25706Y20504
X24706Y20504
X23706Y20504
X22706Y20504
X21706Y20504
X20706Y20504
X19106Y20504
X18106Y20504
X17106Y20504
X16106Y20504
X15106Y20504
X14106Y20504
X13106Y20504
X12106Y20504
T05
X12206Y14504
X13206Y14504
X14206Y14504
X15206Y14504
X16206Y14504
X16206Y13504
X15206Y13504
X14206Y13504
X13206Y13504
X12206Y13504
X20206Y13504
X21206Y13504
X22206Y13504
X23206Y13504
X24206Y13504
X24206Y14504
X23206Y14504
X22206Y14504
X21206Y14504
X20206Y14504
X27206Y11504
X27206Y10504
X27206Y9504
X27206Y8504
X12206Y6004
X12206Y5004
X12206Y4004
T06
X21206Y10504
X25206Y10504
T07
X8206Y1504
X28706Y14504
X8706Y20504
T08
X18106Y5004
M30
