G75*
G70*
%OFA0B0*%
%FSLAX24Y24*%
%IPPOS*%
%LPD*%
%AMOC8*
5,1,8,0,0,1.08239X$1,22.5*
%
%ADD10C,0.0000*%
%ADD11C,0.0520*%
%ADD12OC8,0.0660*%
%ADD13OC8,0.0740*%
%ADD14C,0.0600*%
%ADD15C,0.0740*%
%ADD16C,0.0650*%
%ADD17R,0.0650X0.0650*%
%ADD18C,0.0760*%
%ADD19C,0.0400*%
%ADD20C,0.0320*%
%ADD21C,0.0160*%
D10*
X002706Y000504D02*
X002706Y021504D01*
X028106Y021504D01*
X028706Y020904D01*
X028706Y016404D01*
X029706Y015404D01*
X029706Y002504D01*
X028706Y001504D01*
X028706Y000504D01*
X002706Y000504D01*
X007206Y000504D02*
X007206Y021500D01*
X029576Y021500D01*
X029576Y000504D01*
X007206Y000504D01*
X007576Y001504D02*
X007578Y001554D01*
X007584Y001604D01*
X007594Y001653D01*
X007608Y001701D01*
X007625Y001748D01*
X007646Y001793D01*
X007671Y001837D01*
X007699Y001878D01*
X007731Y001917D01*
X007765Y001954D01*
X007802Y001988D01*
X007842Y002018D01*
X007884Y002045D01*
X007928Y002069D01*
X007974Y002090D01*
X008021Y002106D01*
X008069Y002119D01*
X008119Y002128D01*
X008168Y002133D01*
X008219Y002134D01*
X008269Y002131D01*
X008318Y002124D01*
X008367Y002113D01*
X008415Y002098D01*
X008461Y002080D01*
X008506Y002058D01*
X008549Y002032D01*
X008590Y002003D01*
X008629Y001971D01*
X008665Y001936D01*
X008697Y001898D01*
X008727Y001858D01*
X008754Y001815D01*
X008777Y001771D01*
X008796Y001725D01*
X008812Y001677D01*
X008824Y001628D01*
X008832Y001579D01*
X008836Y001529D01*
X008836Y001479D01*
X008832Y001429D01*
X008824Y001380D01*
X008812Y001331D01*
X008796Y001283D01*
X008777Y001237D01*
X008754Y001193D01*
X008727Y001150D01*
X008697Y001110D01*
X008665Y001072D01*
X008629Y001037D01*
X008590Y001005D01*
X008549Y000976D01*
X008506Y000950D01*
X008461Y000928D01*
X008415Y000910D01*
X008367Y000895D01*
X008318Y000884D01*
X008269Y000877D01*
X008219Y000874D01*
X008168Y000875D01*
X008119Y000880D01*
X008069Y000889D01*
X008021Y000902D01*
X007974Y000918D01*
X007928Y000939D01*
X007884Y000963D01*
X007842Y000990D01*
X007802Y001020D01*
X007765Y001054D01*
X007731Y001091D01*
X007699Y001130D01*
X007671Y001171D01*
X007646Y001215D01*
X007625Y001260D01*
X007608Y001307D01*
X007594Y001355D01*
X007584Y001404D01*
X007578Y001454D01*
X007576Y001504D01*
X017456Y005004D02*
X017458Y005054D01*
X017464Y005104D01*
X017474Y005154D01*
X017487Y005202D01*
X017504Y005250D01*
X017525Y005296D01*
X017549Y005340D01*
X017577Y005382D01*
X017608Y005422D01*
X017642Y005459D01*
X017679Y005494D01*
X017718Y005525D01*
X017759Y005554D01*
X017803Y005579D01*
X017849Y005601D01*
X017896Y005619D01*
X017944Y005633D01*
X017993Y005644D01*
X018043Y005651D01*
X018093Y005654D01*
X018144Y005653D01*
X018194Y005648D01*
X018244Y005639D01*
X018292Y005627D01*
X018340Y005610D01*
X018386Y005590D01*
X018431Y005567D01*
X018474Y005540D01*
X018514Y005510D01*
X018552Y005477D01*
X018587Y005441D01*
X018620Y005402D01*
X018649Y005361D01*
X018675Y005318D01*
X018698Y005273D01*
X018717Y005226D01*
X018732Y005178D01*
X018744Y005129D01*
X018752Y005079D01*
X018756Y005029D01*
X018756Y004979D01*
X018752Y004929D01*
X018744Y004879D01*
X018732Y004830D01*
X018717Y004782D01*
X018698Y004735D01*
X018675Y004690D01*
X018649Y004647D01*
X018620Y004606D01*
X018587Y004567D01*
X018552Y004531D01*
X018514Y004498D01*
X018474Y004468D01*
X018431Y004441D01*
X018386Y004418D01*
X018340Y004398D01*
X018292Y004381D01*
X018244Y004369D01*
X018194Y004360D01*
X018144Y004355D01*
X018093Y004354D01*
X018043Y004357D01*
X017993Y004364D01*
X017944Y004375D01*
X017896Y004389D01*
X017849Y004407D01*
X017803Y004429D01*
X017759Y004454D01*
X017718Y004483D01*
X017679Y004514D01*
X017642Y004549D01*
X017608Y004586D01*
X017577Y004626D01*
X017549Y004668D01*
X017525Y004712D01*
X017504Y004758D01*
X017487Y004806D01*
X017474Y004854D01*
X017464Y004904D01*
X017458Y004954D01*
X017456Y005004D01*
X028076Y014504D02*
X028078Y014554D01*
X028084Y014604D01*
X028094Y014653D01*
X028108Y014701D01*
X028125Y014748D01*
X028146Y014793D01*
X028171Y014837D01*
X028199Y014878D01*
X028231Y014917D01*
X028265Y014954D01*
X028302Y014988D01*
X028342Y015018D01*
X028384Y015045D01*
X028428Y015069D01*
X028474Y015090D01*
X028521Y015106D01*
X028569Y015119D01*
X028619Y015128D01*
X028668Y015133D01*
X028719Y015134D01*
X028769Y015131D01*
X028818Y015124D01*
X028867Y015113D01*
X028915Y015098D01*
X028961Y015080D01*
X029006Y015058D01*
X029049Y015032D01*
X029090Y015003D01*
X029129Y014971D01*
X029165Y014936D01*
X029197Y014898D01*
X029227Y014858D01*
X029254Y014815D01*
X029277Y014771D01*
X029296Y014725D01*
X029312Y014677D01*
X029324Y014628D01*
X029332Y014579D01*
X029336Y014529D01*
X029336Y014479D01*
X029332Y014429D01*
X029324Y014380D01*
X029312Y014331D01*
X029296Y014283D01*
X029277Y014237D01*
X029254Y014193D01*
X029227Y014150D01*
X029197Y014110D01*
X029165Y014072D01*
X029129Y014037D01*
X029090Y014005D01*
X029049Y013976D01*
X029006Y013950D01*
X028961Y013928D01*
X028915Y013910D01*
X028867Y013895D01*
X028818Y013884D01*
X028769Y013877D01*
X028719Y013874D01*
X028668Y013875D01*
X028619Y013880D01*
X028569Y013889D01*
X028521Y013902D01*
X028474Y013918D01*
X028428Y013939D01*
X028384Y013963D01*
X028342Y013990D01*
X028302Y014020D01*
X028265Y014054D01*
X028231Y014091D01*
X028199Y014130D01*
X028171Y014171D01*
X028146Y014215D01*
X028125Y014260D01*
X028108Y014307D01*
X028094Y014355D01*
X028084Y014404D01*
X028078Y014454D01*
X028076Y014504D01*
X008076Y020504D02*
X008078Y020554D01*
X008084Y020604D01*
X008094Y020653D01*
X008108Y020701D01*
X008125Y020748D01*
X008146Y020793D01*
X008171Y020837D01*
X008199Y020878D01*
X008231Y020917D01*
X008265Y020954D01*
X008302Y020988D01*
X008342Y021018D01*
X008384Y021045D01*
X008428Y021069D01*
X008474Y021090D01*
X008521Y021106D01*
X008569Y021119D01*
X008619Y021128D01*
X008668Y021133D01*
X008719Y021134D01*
X008769Y021131D01*
X008818Y021124D01*
X008867Y021113D01*
X008915Y021098D01*
X008961Y021080D01*
X009006Y021058D01*
X009049Y021032D01*
X009090Y021003D01*
X009129Y020971D01*
X009165Y020936D01*
X009197Y020898D01*
X009227Y020858D01*
X009254Y020815D01*
X009277Y020771D01*
X009296Y020725D01*
X009312Y020677D01*
X009324Y020628D01*
X009332Y020579D01*
X009336Y020529D01*
X009336Y020479D01*
X009332Y020429D01*
X009324Y020380D01*
X009312Y020331D01*
X009296Y020283D01*
X009277Y020237D01*
X009254Y020193D01*
X009227Y020150D01*
X009197Y020110D01*
X009165Y020072D01*
X009129Y020037D01*
X009090Y020005D01*
X009049Y019976D01*
X009006Y019950D01*
X008961Y019928D01*
X008915Y019910D01*
X008867Y019895D01*
X008818Y019884D01*
X008769Y019877D01*
X008719Y019874D01*
X008668Y019875D01*
X008619Y019880D01*
X008569Y019889D01*
X008521Y019902D01*
X008474Y019918D01*
X008428Y019939D01*
X008384Y019963D01*
X008342Y019990D01*
X008302Y020020D01*
X008265Y020054D01*
X008231Y020091D01*
X008199Y020130D01*
X008171Y020171D01*
X008146Y020215D01*
X008125Y020260D01*
X008108Y020307D01*
X008094Y020355D01*
X008084Y020404D01*
X008078Y020454D01*
X008076Y020504D01*
D11*
X018706Y008764D02*
X018706Y008244D01*
X019706Y008244D02*
X019706Y008764D01*
X020706Y008764D02*
X020706Y008244D01*
X020706Y006764D02*
X020706Y006244D01*
X021706Y006244D02*
X021706Y006764D01*
X022706Y006764D02*
X022706Y006244D01*
X023706Y006244D02*
X023706Y006764D01*
X024706Y006764D02*
X024706Y006244D01*
X025706Y006244D02*
X025706Y006764D01*
X026706Y006764D02*
X026706Y006244D01*
X027706Y006244D02*
X027706Y006764D01*
X027706Y003764D02*
X027706Y003244D01*
X026706Y003244D02*
X026706Y003764D01*
X025706Y003764D02*
X025706Y003244D01*
X024706Y003244D02*
X024706Y003764D01*
X023706Y003764D02*
X023706Y003244D01*
X022706Y003244D02*
X022706Y003764D01*
X021706Y003764D02*
X021706Y003244D01*
X020706Y003244D02*
X020706Y003764D01*
D12*
X020706Y001504D03*
X019706Y001504D03*
X018706Y001504D03*
X017706Y001504D03*
X016706Y001504D03*
X015706Y001504D03*
X022706Y001504D03*
X023706Y001504D03*
X024706Y001504D03*
X025706Y001504D03*
X026706Y001504D03*
X027706Y001504D03*
X026556Y016504D03*
X025706Y016504D03*
X024856Y016504D03*
X024706Y020504D03*
X023706Y020504D03*
X022706Y020504D03*
X021706Y020504D03*
X020706Y020504D03*
X019106Y020504D03*
X018106Y020504D03*
X017106Y020504D03*
X016106Y020504D03*
X015106Y020504D03*
X014106Y020504D03*
X013106Y020504D03*
X012106Y020504D03*
X016856Y016504D03*
X017706Y016504D03*
X018556Y016504D03*
X025706Y020504D03*
X026706Y020504D03*
X027706Y020504D03*
D13*
X024206Y014504D03*
X023206Y014504D03*
X022206Y014504D03*
X021206Y014504D03*
X020206Y014504D03*
X020206Y013504D03*
X021206Y013504D03*
X022206Y013504D03*
X023206Y013504D03*
X024206Y013504D03*
X016206Y013504D03*
X015206Y013504D03*
X014206Y013504D03*
X013206Y013504D03*
X012206Y013504D03*
X012206Y014504D03*
X013206Y014504D03*
X014206Y014504D03*
X015206Y014504D03*
X016206Y014504D03*
D14*
X026906Y011504D02*
X027506Y011504D01*
X027506Y010504D02*
X026906Y010504D01*
X026906Y009504D02*
X027506Y009504D01*
X027506Y008504D02*
X026906Y008504D01*
X012506Y006004D02*
X011906Y006004D01*
X011906Y005004D02*
X012506Y005004D01*
X012506Y004004D02*
X011906Y004004D01*
D15*
X010706Y006004D03*
X009206Y006004D03*
X009206Y002004D03*
X010706Y002004D03*
X015706Y018504D03*
X019706Y018504D03*
X021206Y018504D03*
X025206Y018504D03*
D16*
X011206Y008004D03*
X012206Y003004D03*
X012206Y002004D03*
X025706Y007504D03*
X026706Y007504D03*
D17*
X012206Y008004D03*
D18*
X021206Y010504D03*
X025206Y010504D03*
D19*
X020206Y013504D02*
X020206Y014504D01*
X020206Y013504D02*
X018706Y012004D01*
X016206Y012004D01*
X012206Y008004D01*
X012206Y013504D01*
X012206Y014504D01*
X010706Y015504D02*
X016206Y015504D01*
X016206Y014504D01*
X016206Y015504D02*
X023206Y015504D01*
X024206Y014504D01*
X026556Y016504D02*
X026556Y016654D01*
X025706Y017504D01*
X019556Y017504D01*
X018556Y016504D01*
X010706Y015504D02*
X009956Y014754D01*
X009956Y001504D01*
X010456Y001004D01*
X013706Y001004D01*
X015206Y002504D01*
X015706Y002504D01*
X016706Y001504D01*
X019206Y003004D02*
X020706Y001504D01*
X021706Y002504D01*
X028206Y002504D01*
X028706Y003004D01*
X028706Y005504D01*
X013706Y005504D02*
X013206Y005004D01*
X012206Y005004D01*
X013706Y005504D02*
X013706Y006504D01*
X012206Y008004D01*
D20*
X012206Y004004D02*
X012206Y003004D01*
X019206Y003004D01*
X026706Y006504D02*
X027706Y006504D01*
X028706Y005504D01*
X026706Y006504D02*
X026706Y007504D01*
D21*
X027706Y008004D02*
X025206Y008004D01*
X024706Y007504D01*
X024706Y006504D01*
X026706Y004504D01*
X026706Y003504D01*
X022706Y006504D02*
X024706Y008504D01*
X027206Y008504D01*
X027706Y008004D02*
X028206Y008504D01*
X028206Y009504D01*
X027206Y010504D01*
X025206Y010504D01*
X024706Y009504D02*
X021706Y006504D01*
X020706Y006504D02*
X020706Y008504D01*
X019706Y008504D02*
X019706Y006504D01*
X020706Y005504D01*
X020706Y003504D01*
X024706Y009504D02*
X027206Y009504D01*
X022206Y010504D02*
X027706Y016004D01*
X027706Y017004D01*
X025206Y019504D01*
X013106Y019504D01*
X012106Y020504D01*
X021206Y010504D02*
X022206Y010504D01*
M02*
